<svg id="Layer_1" data-name="Layer 1" xmlns="http://www.w3.org/2000/svg" xmlns:xlink="http://www.w3.org/1999/xlink" viewBox="0 0 968.02 620.13"><defs><style>.cls-1{fill:none;}.cls-2{clip-path:url(#clip-path);}.cls-3{font-size:37px;font-family:Arbotek-LightRounded, Arbotek;font-weight:300;}</style><clipPath id="clip-path" transform="translate(-226.35 -107.41)"><rect class="cls-1" x="573.82" y="386.27" width="354.32" height="343.68"/></clipPath></defs><path d="M531.88,399.48c2-2,5-4.51,8.51-4.51a10.27,10.27,0,0,1,10.52,10.52V717a10.52,10.52,0,0,1-21,0V433L397.14,581.79a11,11,0,0,1-17,0L247.39,433V717a10.52,10.52,0,1,1-21,0V405.49A10.27,10.27,0,0,1,236.87,395c3.51,0,6.51,2.5,8.51,4.51L388.63,560.76Z" transform="translate(-226.35 -107.41)"/><g class="cls-2"><path d="M556.6,722.72c-7,0-12.26-4.57-12.26-10.67V404.17c0-6.1,5.26-10.67,12.26-10.67H902.17c6.42,0,11.67,4.57,11.67,10.16s-5.25,10.16-11.67,10.16H568.86V637.88H902.17c6.42,0,11.67,4.57,11.67,10.16s-5.25,10.16-11.67,10.16H568.86v44.2H902.17c6.42,0,11.67,4.57,11.67,10.16s-5.25,10.16-11.67,10.16Z" transform="translate(-226.35 -107.41)"/></g><text class="cls-3" transform="translate(542.29 253.03) rotate(-81.48) scale(1.03 1)">W</text><text class="cls-3" transform="matrix(0.33, -0.98, 0.95, 0.32, 547.25, 222.58)">e</text><text class="cls-3" transform="matrix(0.48, -0.91, 0.89, 0.46, 555.37, 198.77)">b</text><text class="cls-3" transform="matrix(0.59, -0.84, 0.82, 0.58, 567.53, 176.65)"> </text><text class="cls-3" transform="matrix(0.72, -0.74, 0.72, 0.69, 575.55, 164.44)">D</text><text class="cls-3" transform="matrix(0.84, -0.6, 0.58, 0.81, 597.83, 142)">e</text><text class="cls-3" transform="matrix(0.92, -0.47, 0.45, 0.89, 617.34, 128.2)">v</text><text class="cls-3" transform="translate(637.15 118.14) rotate(-18.31) scale(1.03 1)">e</text><text class="cls-3" transform="translate(661.36 110.69) rotate(-11.04) scale(1.03 1)">l</text><text class="cls-3" transform="translate(673.27 108.06) rotate(-4.25) scale(1.03 1)">o</text><text class="cls-3" transform="matrix(1.03, 0.09, -0.09, 1, 699.21, 106.37)">p</text><text class="cls-3" transform="matrix(1, 0.25, -0.24, 0.97, 724.23, 108.75)">e</text><text class="cls-3" transform="translate(748.66 115.09) rotate(22.37) scale(1.03 1)">r</text><text class="cls-3" transform="matrix(0.9, 0.5, -0.48, 0.87, 769.78, 124.2)"> </text><text class="cls-3" transform="matrix(0.84, 0.61, -0.59, 0.81, 782.76, 131.2)">&amp;</text><text class="cls-3" transform="matrix(0.76, 0.7, -0.68, 0.73, 803.15, 146.61)"> </text><text class="cls-3" transform="translate(814.14 156.36) rotate(50.61) scale(1.03 1)">C</text><text class="cls-3" transform="matrix(0.51, 0.9, -0.87, 0.5, 833.02, 179.93)">o</text><text class="cls-3" transform="matrix(0.37, 0.96, -0.93, 0.36, 845.8, 202.6)">n</text><text class="cls-3" transform="translate(854.45 226.02) rotate(76.52) scale(1.03 1)">t</text><text class="cls-3" transform="matrix(0.11, 1.03, -0.99, 0.1, 858.83, 243.97)">e</text><text class="cls-3" transform="translate(861.24 269.04) rotate(92.89) scale(1.03 1)">n</text><text class="cls-3" transform="translate(859.61 293.93) rotate(100.71) scale(1.03 1)">t</text><text class="cls-3" transform="translate(855.79 312.73) rotate(106.85) scale(1.03 1)"> </text><text class="cls-3" transform="matrix(-0.44, 0.94, -0.91, -0.42, 851.92, 326.84)">C</text><text class="cls-3" transform="translate(838.67 353.93) rotate(124.95) scale(1.03 1)">r</text><text class="cls-3" transform="matrix(-0.72, 0.75, -0.72, -0.69, 825.78, 372.25)">e</text><text class="cls-3" transform="matrix(-0.83, 0.62, -0.6, -0.8, 808.25, 390.29)">a</text><text class="cls-3" transform="translate(787.79 405.04) rotate(151.44) scale(1.03 1)">t</text><text class="cls-3" transform="translate(771.71 413.93) rotate(159.69) scale(1.03 1)">o</text><text class="cls-3" transform="translate(747.21 422.65) rotate(168.8) scale(1.03 1)">r</text></svg>