<svg id="Layer_1" data-name="Layer 1" xmlns="http://www.w3.org/2000/svg" xmlns:xlink="http://www.w3.org/1999/xlink" viewBox="0 0 1280 1024"><defs><style>.cls-1{fill:none;}.cls-2{clip-path:url(#clip-path);}.cls-3{font-size:37.29px;font-family:Arbotek-LightRounded, Arbotek;font-weight:300;}</style><clipPath id="clip-path"><rect class="cls-1" x="573.82" y="386.27" width="354.32" height="343.68"/></clipPath></defs><path d="M531.88,399.48c2-2,5-4.51,8.51-4.51a10.27,10.27,0,0,1,10.52,10.52V717a10.52,10.52,0,0,1-21,0V433L397.14,581.79a11,11,0,0,1-17,0L247.39,433V717a10.52,10.52,0,1,1-21,0V405.49A10.27,10.27,0,0,1,236.87,395c3.51,0,6.51,2.5,8.51,4.51L388.63,560.76Z"/><g class="cls-2"><path d="M556.6,722.72c-7,0-12.26-4.57-12.26-10.67V404.17c0-6.1,5.26-10.67,12.26-10.67H902.17c6.42,0,11.67,4.57,11.67,10.16s-5.25,10.16-11.67,10.16H568.86V637.88H902.17c6.42,0,11.67,4.57,11.67,10.16s-5.25,10.16-11.67,10.16H568.86v44.2H902.17c6.42,0,11.67,4.57,11.67,10.16s-5.25,10.16-11.67,10.16Z"/></g><text class="cls-3" transform="matrix(0.18, -1.02, 0.98, 0.18, 768.93, 356.18)">W</text><text class="cls-3" transform="translate(774.87 325.25) rotate(-69.78) scale(1.03 1)">e</text><text class="cls-3" transform="translate(784.01 301.14) rotate(-60.25) scale(1.03 1)">b</text><text class="cls-3" transform="translate(797.3 278.99) rotate(-52.55) scale(1.03 1)"> </text><text class="cls-3" transform="matrix(0.75, -0.71, 0.69, 0.72, 806.15, 266.7)">D</text><text class="cls-3" transform="translate(829.92 244.84) rotate(-32.85) scale(1.03 1)">e</text><text class="cls-3" transform="translate(850.93 231.56) rotate(-24.01) scale(1.03 1)">s</text><text class="cls-3" transform="translate(872.15 222.6) rotate(-17.1) scale(1.03 1)">i</text><text class="cls-3" transform="translate(884.08 218.66) rotate(-10.21) scale(1.03 1)">g</text><text class="cls-3" transform="matrix(1.03, -0.02, 0.01, 1, 909.45, 214.35)">n</text><text class="cls-3" transform="translate(934.93 214.2) rotate(8.37) scale(1.03 1)">e</text><text class="cls-3" transform="translate(960.44 218.28) rotate(17.08) scale(1.03 1)">r</text><text class="cls-3" transform="matrix(0.94, 0.42, -0.41, 0.91, 982.87, 225.62)"> </text><text class="cls-3" transform="matrix(0.88, 0.53, -0.52, 0.86, 996.9, 231.67)">&amp;</text><text class="cls-3" transform="matrix(0.81, 0.64, -0.62, 0.78, 1019.01, 245.66)"> </text><text class="cls-3" transform="translate(1031.17 254.84) rotate(46.28) scale(1.03 1)">C</text><text class="cls-3" transform="matrix(0.58, 0.86, -0.83, 0.56, 1052.19, 277.44)">o</text><text class="cls-3" transform="matrix(0.44, 0.94, -0.91, 0.42, 1066.87, 299.65)">n</text><text class="cls-3" transform="translate(1077.36 322.99) rotate(72.72) scale(1.03 1)">t</text><text class="cls-3" transform="matrix(0.17, 1.02, -0.99, 0.17, 1083.07, 341.16)">e</text><text class="cls-3" transform="matrix(0.01, 1.03, -1, 0.01, 1087.11, 366.68)">n</text><text class="cls-3" transform="translate(1086.94 392.23) rotate(97.46) scale(1.03 1)">t</text><text class="cls-3" transform="matrix(-0.25, 1, -0.97, -0.24, 1084.09, 411.77)"> </text><text class="cls-3" transform="translate(1080.83 426.61) rotate(112.16) scale(1.03 1)">C</text><text class="cls-3" transform="matrix(-0.55, 0.87, -0.85, -0.53, 1068.7, 454.91)">r</text><text class="cls-3" transform="translate(1056.36 474.32) rotate(131.31) scale(1.03 1)">e</text><text class="cls-3" transform="matrix(-0.8, 0.65, -0.63, -0.78, 1039.16, 493.51)">a</text><text class="cls-3" transform="matrix(-0.89, 0.53, -0.51, -0.86, 1018.86, 509.42)">t</text><text class="cls-3" transform="translate(1002.59 519.17) rotate(157.83) scale(1.03 1)">o</text><text class="cls-3" transform="translate(977.84 528.86) rotate(167.19) scale(1.03 1)">r</text></svg>